inDegrees=yes
name=ik_Xsens_quaternion
DataType=double
version=3
OpenSimVersion=4.4-2022-07-23-0e9fedc
endheader
time	pelvis_tilt	pelvis_list	pelvis_rotation	pelvis_tx	pelvis_ty	pelvis_tz	hip_flexion_r	hip_adduction_r	hip_rotation_r	knee_angle_r	knee_angle_r_beta	ankle_angle_r	subtalar_angle_r	mtp_angle_r	hip_flexion_l	hip_adduction_l	hip_rotation_l	knee_angle_l	knee_angle_l_beta	ankle_angle_l	subtalar_angle_l	mtp_angle_l	lumbar_extension	lumbar_bending	lumbar_rotation	arm_flex_r	arm_add_r	arm_rot_r	elbow_flex_r	pro_sup_r	wrist_flex_r	wrist_dev_r	arm_flex_l	arm_add_l	arm_rot_l	elbow_flex_l	pro_sup_l	wrist_flex_l	wrist_dev_l
12.48333333333333	-4.360299844543078e-12	2.175566221913708e-12	-2.415248989215306e-12	-1.829728389447265e-24	0.93	3.059158079819721e-24	-1.000131208098509e-23	5.333873426131679e-24	3.519736856270378e-27	7.542222338442395e-07	1.316366127171306e-08	-2.193706133610795e-11	-2.075000001726963	-3.396000005145023	71.66539848980263	26.26580685076911	-39.99756434392611	0.00610142236258124	0.0001064899092236959	2.594000002591422	1.408991124542296e-17	7.424294120441655e-24	-3.37814191321135e-12	1.045682192057532e-12	-1.936884280215668e-12	1.033470130739492e-11	6.458280483386466e-12	-6.679547830972673e-12	7.542222314485053e-07	7.542222382645026e-07	7.818033183528548e-23	9.095259659166658e-23	-2.708461829172872	-13.96320723715015	-47.54969853012268	0.007366320766795761	44.73811927564527	4.461243638309083e-23	2.759621026879315e-23
12.5	-4.841688149093597e-12	3.458791495853302e-12	-3.975284581766748e-12	-6.037399277060178e-26	0.93	-4.181841875820397e-19	-1.560348154240872e-17	-9.67660765127592e-17	1.286012132786716e-14	0	1.638766365956244e-15	4.609452049421335e-12	-2.075000001726963	-3.396000005145023	71.34711623895863	27.59204813463732	-39.99756851231549	0.005907260403219422	0.0001031011437169273	2.594000002641837	-7.369404072212193e-25	-7.971647191467529e-27	-3.824985933403581e-12	3.72846740951182e-12	-8.479058213589329e-13	2.477549983473639e-12	-1.658796341553675e-12	-2.718343133486519e-12	0	0	6.960480570450117e-27	-5.523038190007075e-28	-1.990891051051547	-13.82872621769762	-47.57296371371567	0.007538115613612969	44.73993080043273	-8.733686044294398e-28	-1.318555193650779e-27
12.51666666666667	0	0	0	0	0.93	0	0	0	0	6.272538112810592e-46	3.28429327576129e-47	0	-2.075000001726963	-3.396000005145023	71.02227689677008	28.89777329359569	-39.99756705264683	0.005729871367502388	0.0001000051210786667	2.59400000263976	0	0	0	0	0	0	0	0	0	1.293647338663459e-46	0	0	-1.269960227088081	-13.69501600624834	-47.60625885055346	0.007726415071250139	44.7414616768591	0	0
12.53333333333333	0	0	0	0	0.93	0	0	0	0	0	0	0	-2.075000001726963	-3.396000005145023	70.77982185436711	29.85462236051139	-39.99756993724402	0.005641990678178434	9.847131370104146e-05	2.59400000263976	0	0	0	0	0	0	0	0	8.081514331625719e-38	1.481527336365351e-37	0	0	-0.5467467045860175	-13.55307545642438	-47.65409958170098	0.007938830854423906	44.74265089393632	0	0
12.55	6.869050145329454e-25	-1.343894278842164e-23	1.226372520227292e-14	1.08106505914822e-15	0.93	1.574217044571049e-18	0	2.055055468816423e-18	0	6.24203205676386e-15	1.08944011514643e-16	1.87133932227224e-18	-2.075000001726963	-3.396000005145022	70.77758636356832	29.9620530618592	-39.99758653059792	0.005768044366802269	0.0001006713656018111	2.59400000263976	-1.679659843446212e-19	-6.299102095078546e-16	-2.662578601813084e-24	-9.38341784666277e-24	-1.544572761456225e-21	-1.16478995542549e-13	8.591686237555925e-16	2.630554400817235e-16	6.242032054792729e-15	6.242024599714123e-15	2.231947749880973e-14	-1.669201096403209e-16	0.1707175553228747	-13.40756697469399	-47.72191982250798	0.008171586353787518	44.74402689647869	1.510676778889934e-14	7.742577755563082e-16
12.56666666666667	-2.50699019935224e-12	1.2180053809775e-12	-2.670552516039158e-12	3.309518219511955e-28	0.93	4.819250902471631e-31	-1.261905345296304e-23	6.730248888308549e-24	-5.132422927387286e-31	5.695672329984829e-06	9.940823524845702e-08	6.075175603044241e-24	-2.075000001726963	-3.396000005145023	70.84983374613822	29.97884016223243	-39.99759038329056	0.005959169889510096	0.0001040071352231176	2.59400000263976	-3.636749803659121e-31	-1.92908414984996e-28	-1.94015023696895e-12	1.00187637777555e-12	-1.527971841899709e-12	7.722992479016356e-25	-2.558745601299578e-23	7.324534741377467e-24	5.695672217428013e-06	5.695672538519351e-06	6.832897746381308e-27	-5.768866679913045e-24	0.8956064438806798	-13.26399706351954	-47.77891006863149	0.008413520907444967	44.74572840834644	4.624772344612044e-27	-5.768578519458991e-24
12.58333333333333	0	0	0	0	0.93	0	0	0	0	0	0	0	-2.075000001726963	-3.396000005145023	71.0286600567687	29.98534372028566	-39.99757630238999	0.006232463842496411	0.0001087770145630597	2.59400000263976	0	0	0	0	0	0	0	0	0	0	0	0	1.636151989666975	-13.09814087324241	-47.82287449345908	0.008697150654160917	44.74744098379148	0	0
12.6	0	0	0	0	0.93	0	0	0	0	0	0	0	-2.075000001726963	-3.396000005145023	71.39525664182482	29.9886677512688	-39.9975391710359	0.006605471193200892	0.000115287220966994	2.59400000263976	0	0	0	0	0	0	0	0	0	0	0	0	2.394126363116052	-12.90909955453724	-47.87477212898111	0.008983641704018119	44.74909444169064	0	0
12.61666666666667	0	0	0	0	0.93	0	0	0	0	0	0	0	-2.075000001726963	-3.396000005145023	71.84397728622342	29.9906987134566	-39.99748686962494	0.007067294185303942	0.000123347552740604	2.59400000263976	0	0	0	0	0	0	0	0	1.052357267868557e-38	1.052357267868557e-38	0	0	3.167468823050274	-12.71262809405227	-47.93051322319437	0.009302290570352291	44.75069872000629	0	0
12.63333333333333	0	0	0	0	0.93	0	0	0	0	0	0	0	-2.075000001726963	-3.396000005145023	72.16852100020159	29.9920955844722	-39.99744255313923	0.007543790730890245	0.0001316639863354643	2.59400000263976	0	0	0	0	0	0	0	0	0	0	0	0	3.954048013840225	-12.53512543428065	-47.98980349041462	0.009638504683423754	44.75233079387843	0	0
12.65	2.363278977931628e-27	5.171855221698657e-24	3.252148120526746e-28	-1.201491671805703e-25	0.93	-2.050986280077669e-25	1.110596747872166e-34	1.45130292530698e-22	0	0	-1.090062654110831e-16	2.694330208604128e-18	-2.075000001726963	-3.396000005145023	72.26929987038061	29.99312702539144	-39.99742309612476	0.007999628988114195	0.000139619864780575	2.59400000263976	-8.192563196261846e-24	-7.370407517954309e-24	1.608570401643252e-28	-3.600190987619206e-18	-3.730779226784804e-28	4.511520346961888e-21	4.68229307951979e-18	1.14526023889123e-19	0	0	1.097251791353112e-18	-2.483342312842867e-18	4.755579723989768	-12.33674067292043	-48.10386657805007	0.01003800878114912	44.75381061175423	-2.308180674425633e-20	2.591217834239522e-18
12.66666666666667	0	0	0	0	0.93	0	0	0	0	0	0	0	-2.075000001726963	-3.396000005145023	72.20732575973047	29.99390837775203	-39.99742291489513	0.008476612008228111	0.0001479447889576692	2.59400000263976	0	0	0	0	0	0	0	0	0	0	0	0	5.593959914542789	-12.11023279687094	-48.25393760507784	0.01037694410148488	44.75516050929971	0	0
12.68333333333333	0	0	0	0	0.93	0	0	0	0	0	0	0	-2.075000001726963	-3.396000005145023	72.03293748085024	29.99452436880405	-39.99743922245349	0.008959789810638434	0.0001563778324822799	2.59400000263976	0	0	0	0	0	0	0	0	0	0	0	0	6.464090314248888	-11.85468433175961	-48.41079162425195	0.01082665684327711	44.75643024311752	0	0
12.7	0	0	0	0	0.93	0	0	0	0	0	0	0	-2.075000001726963	-3.396000005145023	71.83617746478707	29.99499505023339	-39.99746315291779	0.009431636371684721	0.0001646131085367501	2.59400000263976	0	0	0	0	0	0	0	0	0	0	0	0	7.348576213495808	-11.57494580307183	-48.6421091031375	0.01133051180132317	44.75762789038776	0	0
12.71666666666667	-3.61491515499984e-26	-6.815025237807217e-26	-3.351994672535391e-16	8.95336615473855e-18	0.93	4.699977364347342e-18	2.940842959778218e-16	2.313229393171489e-16	-7.672911528797951e-16	5.819726345722112e-15	4.465852248506458e-17	1.018526486619087e-14	-2.075000001726963	-3.396000005145023	71.66902586060841	29.99535275441818	-39.99749199085296	0.009854685770884459	0.0001719967134511025	2.59400000263975	-1.764001275050479e-17	2.222586592776351e-17	-6.68698521148372e-15	-5.197353291897501e-15	2.134813229912395e-15	-1.006451149707435e-15	-2.042549073564594e-14	9.666351124149688e-15	5.818531478492701e-15	5.818531550561088e-15	8.04261265207577e-18	-6.530526067719781e-18	8.203724846409026	-11.32457320872043	-48.97190388975309	0.01186879894217231	44.75880246100912	1.406969766553854e-18	1.376084266762705e-17
12.73333333333333	0	0	0	0	0.93	0	0	0	0	0	0	0	-2.075000001726963	-3.396000005145023	71.42965148578067	29.99563570158671	-39.99753209104355	0.0101908776849424	0.0001778643692702623	2.59400000263976	0	0	0	0	0	0	0	0	0	0	0	0	9.016215204182453	-11.10182206099228	-49.38738675455203	0.01244201956025969	44.75979375825916	0	0
12.75	0	0	0	0	0.93	0	0	0	0	0	0	0	-2.075000001726963	-3.396000005145023	71.06018771050874	29.99587371922368	-39.99757723712047	0.01045080152294626	0.0001824008960478499	2.59400000263976	0	0	0	0	0	0	0	0	8.418858142948453e-38	0	0	0	9.810529952692454	-10.91173524866399	-49.75677229902707	0.01301757675044944	44.76077495134951	0	0
12.76666666666667	0	0	0	0	0.93	0	0	0	0	0	-9.264410120489232e-40	0	-2.075000001726963	-3.396000005145023	70.64286378600521	29.99606840804913	-39.99762305098145	0.01066932849457002	0.0001862149112070968	2.59400000263976	0	0	0	0	0	0	0	0	0	2.322895438740894e-39	0	0	10.61080190218598	-10.69390780996487	-49.97886350609554	0.01361259394910059	44.76198043215165	0	0
12.78333333333333	1.454699183417158e-12	4.617596800670954e-12	-1.094542330165794e-12	6.623747003222467e-24	0.93	6.135644740349222e-23	-3.161694773766728e-23	-1.350688859632375e-21	1.101488077223738e-31	5.890987873145582e-06	1.028171345661746e-07	2.180435605562138e-22	-2.075000001726963	-3.396000005145023	70.24608973226658	29.99622412107402	-39.99766446015765	0.01086308491227314	0.0001895965986987279	2.59400000263976	-1.199793591089683e-22	1.257606721755975e-21	8.400821778456214e-14	4.363691259562259e-12	-1.980952094074189e-12	7.963480147797317e-20	7.970700112712248e-18	2.960918727668051e-22	5.890987705309256e-06	5.890988172484529e-06	4.469816451274262e-20	-4.369051250042586e-22	11.40588705626631	-10.46378171608255	-50.05177211703346	0.01419597410420248	44.76321229688901	-5.372236247696826e-22	-1.296385312769086e-22
12.8	-5.730791716154081e-26	-1.863866182100788e-26	-1.252050412644821e-25	-8.91563964805333e-28	0.93	2.180385713999088e-19	-2.059199703012575e-16	5.432538004013613e-16	4.71990249850571e-17	9.772468753352426e-15	3.188104463870708e-17	-1.022126611971648e-15	-2.075000001726963	-3.396000005145023	69.87292024632004	29.99634764354511	-39.99770018873691	0.01102228425777532	0.0001923751513888689	2.594000002639761	-1.568055468311433e-18	-3.695132290084715e-26	1.316526553321397e-15	-4.01891327315897e-15	1.542674760273445e-15	3.04545780019639e-16	5.47747999412429e-17	-2.028014112107738e-16	9.789392651002586e-15	9.789392704472154e-15	1.200317557617636e-25	-1.73387179737493e-25	12.19123659692864	-10.21956347252636	-50.01405032175826	0.01478578067821545	44.76446611350333	-2.639670177117906e-26	-3.175567444080797e-26
12.81666666666667	0	0	0	0	0.93	0	0	0	0	0	0	0	-2.075000001726963	-3.396000005145023	69.5227722682023	29.99644580120381	-39.99773080228572	0.01115585095086618	0.000194706329954355	2.59400000263976	0	0	0	0	0	0	0	0	0	0	0	0	12.98529954915029	-9.981299101141058	-49.87605601354065	0.01538047694415923	44.76566906038241	0	0
